<mxfile host="app.diagrams.net" modified="2021-12-28T07:48:32.816Z" agent="5.0 (Macintosh; Intel Mac OS X 10_15_7) AppleWebKit/605.1.15 (KHTML, like Gecko) Version/15.2 Safari/605.1.15" etag="7KrBj25Q6tuV7LQZJuFf" version="16.1.0" type="github">
  <diagram id="0aeRE0tCsv8mf68YyDRM" name="Page-1">
    <mxGraphModel dx="976" dy="559" grid="1" gridSize="10" guides="1" tooltips="1" connect="1" arrows="1" fold="1" page="1" pageScale="1" pageWidth="827" pageHeight="1169" math="0" shadow="0">
      <root>
        <mxCell id="0" />
        <mxCell id="1" parent="0" />
        <mxCell id="YVQTxDQMYLhQ8_NlOrRE-15" value="" style="edgeStyle=orthogonalEdgeStyle;rounded=0;orthogonalLoop=1;jettySize=auto;html=1;" edge="1" parent="1" source="YVQTxDQMYLhQ8_NlOrRE-1" target="YVQTxDQMYLhQ8_NlOrRE-13">
          <mxGeometry relative="1" as="geometry" />
        </mxCell>
        <mxCell id="YVQTxDQMYLhQ8_NlOrRE-1" value="создается массив целых чисел определенной длины&lt;br&gt;&lt;b&gt;Array&lt;/b&gt;&amp;nbsp;" style="rounded=0;whiteSpace=wrap;html=1;" vertex="1" parent="1">
          <mxGeometry x="354" y="40" width="120" height="80" as="geometry" />
        </mxCell>
        <mxCell id="YVQTxDQMYLhQ8_NlOrRE-17" value="" style="edgeStyle=orthogonalEdgeStyle;rounded=0;orthogonalLoop=1;jettySize=auto;html=1;" edge="1" parent="1" source="YVQTxDQMYLhQ8_NlOrRE-2" target="YVQTxDQMYLhQ8_NlOrRE-4">
          <mxGeometry relative="1" as="geometry" />
        </mxCell>
        <mxCell id="YVQTxDQMYLhQ8_NlOrRE-2" value="Array [I] четное&amp;nbsp;" style="rhombus;whiteSpace=wrap;html=1;" vertex="1" parent="1">
          <mxGeometry x="323.5" y="250" width="181" height="40" as="geometry" />
        </mxCell>
        <mxCell id="YVQTxDQMYLhQ8_NlOrRE-4" value="счетчик = +1" style="shape=parallelogram;perimeter=parallelogramPerimeter;whiteSpace=wrap;html=1;fixedSize=1;" vertex="1" parent="1">
          <mxGeometry x="354.5" y="320" width="120" height="40" as="geometry" />
        </mxCell>
        <mxCell id="YVQTxDQMYLhQ8_NlOrRE-9" value="" style="endArrow=none;html=1;rounded=0;exitDx=0;exitDy=0;exitPerimeter=0;startArrow=none;" edge="1" parent="1">
          <mxGeometry width="50" height="50" relative="1" as="geometry">
            <mxPoint x="220" y="310" as="sourcePoint" />
            <mxPoint x="220" y="310" as="targetPoint" />
            <Array as="points" />
          </mxGeometry>
        </mxCell>
        <mxCell id="YVQTxDQMYLhQ8_NlOrRE-16" value="" style="edgeStyle=orthogonalEdgeStyle;rounded=0;orthogonalLoop=1;jettySize=auto;html=1;" edge="1" parent="1" source="YVQTxDQMYLhQ8_NlOrRE-13" target="YVQTxDQMYLhQ8_NlOrRE-2">
          <mxGeometry relative="1" as="geometry" />
        </mxCell>
        <mxCell id="YVQTxDQMYLhQ8_NlOrRE-22" value="" style="edgeStyle=orthogonalEdgeStyle;rounded=0;orthogonalLoop=1;jettySize=auto;html=1;" edge="1" parent="1" source="YVQTxDQMYLhQ8_NlOrRE-13" target="YVQTxDQMYLhQ8_NlOrRE-21">
          <mxGeometry relative="1" as="geometry" />
        </mxCell>
        <mxCell id="YVQTxDQMYLhQ8_NlOrRE-13" value="цикл на длину массива" style="shape=parallelogram;perimeter=parallelogramPerimeter;whiteSpace=wrap;html=1;fixedSize=1;" vertex="1" parent="1">
          <mxGeometry x="354.5" y="170" width="120" height="30" as="geometry" />
        </mxCell>
        <mxCell id="YVQTxDQMYLhQ8_NlOrRE-18" value="" style="endArrow=classic;html=1;rounded=0;exitX=0.5;exitY=1;exitDx=0;exitDy=0;entryX=0;entryY=0.5;entryDx=0;entryDy=0;" edge="1" parent="1" source="YVQTxDQMYLhQ8_NlOrRE-4" target="YVQTxDQMYLhQ8_NlOrRE-13">
          <mxGeometry width="50" height="50" relative="1" as="geometry">
            <mxPoint x="420" y="330" as="sourcePoint" />
            <mxPoint x="470" y="280" as="targetPoint" />
            <Array as="points">
              <mxPoint x="415" y="410" />
              <mxPoint x="310" y="410" />
              <mxPoint x="310" y="185" />
            </Array>
          </mxGeometry>
        </mxCell>
        <mxCell id="YVQTxDQMYLhQ8_NlOrRE-19" value="" style="endArrow=none;html=1;rounded=0;entryX=1;entryY=0.5;entryDx=0;entryDy=0;" edge="1" parent="1" target="YVQTxDQMYLhQ8_NlOrRE-2">
          <mxGeometry width="50" height="50" relative="1" as="geometry">
            <mxPoint x="410" y="410" as="sourcePoint" />
            <mxPoint x="460" y="280" as="targetPoint" />
            <Array as="points">
              <mxPoint x="520" y="410" />
              <mxPoint x="520" y="270" />
            </Array>
          </mxGeometry>
        </mxCell>
        <mxCell id="YVQTxDQMYLhQ8_NlOrRE-24" value="" style="edgeStyle=orthogonalEdgeStyle;rounded=0;orthogonalLoop=1;jettySize=auto;html=1;" edge="1" parent="1" source="YVQTxDQMYLhQ8_NlOrRE-21" target="YVQTxDQMYLhQ8_NlOrRE-23">
          <mxGeometry relative="1" as="geometry" />
        </mxCell>
        <mxCell id="YVQTxDQMYLhQ8_NlOrRE-21" value="формируем новый массив длиной равной счетчику &lt;b&gt;NewArray&lt;/b&gt;" style="rounded=0;whiteSpace=wrap;html=1;" vertex="1" parent="1">
          <mxGeometry x="540" y="155" width="120" height="60" as="geometry" />
        </mxCell>
        <mxCell id="YVQTxDQMYLhQ8_NlOrRE-33" value="" style="edgeStyle=orthogonalEdgeStyle;rounded=0;orthogonalLoop=1;jettySize=auto;html=1;" edge="1" parent="1" source="YVQTxDQMYLhQ8_NlOrRE-23" target="YVQTxDQMYLhQ8_NlOrRE-32">
          <mxGeometry relative="1" as="geometry" />
        </mxCell>
        <mxCell id="YVQTxDQMYLhQ8_NlOrRE-23" value="запускаем цикл &lt;br&gt;равный длине массива &lt;br&gt;&lt;b&gt;Array&lt;/b&gt;" style="shape=parallelogram;perimeter=parallelogramPerimeter;whiteSpace=wrap;html=1;fixedSize=1;" vertex="1" parent="1">
          <mxGeometry x="720" y="155" width="180" height="60" as="geometry" />
        </mxCell>
        <mxCell id="YVQTxDQMYLhQ8_NlOrRE-25" value="Array [I] четное&amp;nbsp;" style="rhombus;whiteSpace=wrap;html=1;" vertex="1" parent="1">
          <mxGeometry x="719.5" y="250" width="181" height="40" as="geometry" />
        </mxCell>
        <mxCell id="YVQTxDQMYLhQ8_NlOrRE-26" value="Если значение массива четное, то кладем его в новый массив &lt;br&gt;NewArray [j] = Array [I]" style="shape=parallelogram;perimeter=parallelogramPerimeter;whiteSpace=wrap;html=1;fixedSize=1;" vertex="1" parent="1">
          <mxGeometry x="690" y="310" width="240" height="80" as="geometry" />
        </mxCell>
        <mxCell id="YVQTxDQMYLhQ8_NlOrRE-28" value="" style="endArrow=classic;html=1;rounded=0;exitX=0.5;exitY=1;exitDx=0;exitDy=0;" edge="1" parent="1" source="YVQTxDQMYLhQ8_NlOrRE-23" target="YVQTxDQMYLhQ8_NlOrRE-25">
          <mxGeometry width="50" height="50" relative="1" as="geometry">
            <mxPoint x="560" y="330" as="sourcePoint" />
            <mxPoint x="610" y="280" as="targetPoint" />
          </mxGeometry>
        </mxCell>
        <mxCell id="YVQTxDQMYLhQ8_NlOrRE-29" value="" style="endArrow=classic;html=1;rounded=0;entryX=0.5;entryY=0;entryDx=0;entryDy=0;" edge="1" parent="1" target="YVQTxDQMYLhQ8_NlOrRE-26">
          <mxGeometry width="50" height="50" relative="1" as="geometry">
            <mxPoint x="810" y="290" as="sourcePoint" />
            <mxPoint x="820" y="260" as="targetPoint" />
          </mxGeometry>
        </mxCell>
        <mxCell id="YVQTxDQMYLhQ8_NlOrRE-30" value="" style="endArrow=classic;html=1;rounded=0;entryX=0;entryY=0.5;entryDx=0;entryDy=0;exitX=0.5;exitY=1;exitDx=0;exitDy=0;" edge="1" parent="1" source="YVQTxDQMYLhQ8_NlOrRE-26" target="YVQTxDQMYLhQ8_NlOrRE-25">
          <mxGeometry width="50" height="50" relative="1" as="geometry">
            <mxPoint x="710" y="330" as="sourcePoint" />
            <mxPoint x="760" y="280" as="targetPoint" />
            <Array as="points">
              <mxPoint x="810" y="410" />
              <mxPoint x="650" y="410" />
              <mxPoint x="650" y="270" />
            </Array>
          </mxGeometry>
        </mxCell>
        <mxCell id="YVQTxDQMYLhQ8_NlOrRE-31" value="" style="endArrow=none;html=1;rounded=0;entryX=1;entryY=0.5;entryDx=0;entryDy=0;" edge="1" parent="1" target="YVQTxDQMYLhQ8_NlOrRE-25">
          <mxGeometry width="50" height="50" relative="1" as="geometry">
            <mxPoint x="810" y="410" as="sourcePoint" />
            <mxPoint x="760" y="280" as="targetPoint" />
            <Array as="points">
              <mxPoint x="950" y="410" />
              <mxPoint x="950" y="270" />
            </Array>
          </mxGeometry>
        </mxCell>
        <mxCell id="YVQTxDQMYLhQ8_NlOrRE-32" value="Новый массив заполнен четными элементами первоначального массива" style="shape=document;whiteSpace=wrap;html=1;boundedLbl=1;" vertex="1" parent="1">
          <mxGeometry x="1000" y="122.5" width="120" height="125" as="geometry" />
        </mxCell>
      </root>
    </mxGraphModel>
  </diagram>
</mxfile>
